<?xml version="1.0" standalone="no"?>
<!DOCTYPE svg PUBLIC "-//W3C//DTD SVG 20010904//EN"
 "http://www.w3.org/TR/2001/REC-SVG-20010904/DTD/svg10.dtd">
<svg version="1.0" xmlns="http://www.w3.org/2000/svg"
 width="80.000000pt" height="80.000000pt" viewBox="0 0 80.000000 80.000000"
 preserveAspectRatio="xMidYMid meet">
<metadata>
Created by potrace 1.10, written by Peter Selinger 2001-2011
</metadata>
<g transform="translate(0.000000,80.000000) scale(0.050000,-0.050000)"
fill="#ff0000" stroke="none">
<path d="M0 800 l0 -800 800 0 800 0 0 800 0 800 -800 0 -800 0 0 -800z m1549
749 c41 -42 48 -1464 7 -1505 -34 -34 -1478 -34 -1512 0 -34 34 -34 1478 0
1512 41 41 1463 34 1505 -7z"/>
<path d="M100 800 l0 -700 700 0 700 0 0 100 c0 113 -19 123 -92 50 -63 -63
-108 -65 -108 -3 0 32 -20 58 -65 82 -74 40 -184 180 -165 211 24 38 66 20
138 -60 39 -44 84 -80 99 -80 15 0 39 -25 53 -55 23 -46 28 -49 35 -18 7 27
20 33 57 24 l48 -12 0 581 0 580 -700 0 -700 0 0 -700z m256 585 c4 -42 23
-77 54 -97 78 -51 79 -88 3 -88 -50 0 -73 12 -93 50 -22 40 -42 50 -105 50
-90 0 -97 46 -8 56 46 6 51 14 40 57 -11 46 -7 50 45 44 49 -6 59 -17 64 -72z
m1051 40 c7 -19 23 -50 36 -67 34 -46 7 -98 -51 -98 -27 0 -63 -13 -79 -30
-17 -16 -38 -30 -47 -30 -9 0 -28 -18 -42 -40 -23 -38 -28 -38 -72 -9 -36 23
-50 25 -56 6 -5 -13 -19 -17 -32 -9 -32 19 -31 126 1 139 16 6 12 10 -8 11
-19 1 -48 8 -66 14 -21 8 -31 4 -27 -13 3 -15 -10 -30 -29 -34 -25 -6 -35 4
-35 34 0 25 13 41 34 41 48 0 7 35 -54 46 -32 5 -19 10 35 11 72 3 85 -3 85
-37 0 -33 7 -36 50 -20 46 17 50 14 50 -35 0 -30 8 -67 17 -81 19 -29 83 -11
83 23 0 34 73 74 109 61 20 -8 31 -1 31 20 0 18 -9 32 -20 32 -29 0 -25 75 5
87 48 19 70 13 82 -22z m-747 -51 c-36 -18 -52 -44 -56 -94 -5 -47 -23 -82
-59 -108 l-51 -39 14 49 c14 43 26 100 30 143 1 8 16 15 32 15 17 0 30 14 30
30 0 19 19 30 55 30 l55 -1 -50 -25z m140 -54 c0 -51 -8 -60 -51 -60 -57 0
-62 51 -9 94 47 38 60 31 60 -34z m151 -155 c14 -19 42 -35 62 -35 28 0 37
-16 39 -65 l2 -65 -103 0 -103 0 8 -70 c6 -51 18 -70 45 -70 19 0 50 -5 67
-12 21 -8 32 -1 32 20 0 18 14 32 30 32 17 0 30 14 30 30 0 26 50 41 105 32 8
-1 15 16 15 38 0 27 -13 40 -40 40 -23 0 -40 13 -40 31 0 22 15 30 45 25 39
-5 44 -17 41 -86 -10 -175 -30 -270 -58 -270 -15 0 -28 -9 -28 -20 0 -11 -13
-20 -30 -20 -21 0 -30 -21 -30 -71 0 -40 -13 -85 -29 -100 -33 -34 -111 -39
-111 -8 0 12 -11 15 -24 7 -19 -12 -19 -17 0 -23 13 -5 24 -31 24 -60 0 -48
-2 -49 -37 -18 -45 41 -63 42 -63 3 0 -39 -18 -38 -63 3 -34 31 -37 31 -37 0
0 -18 -13 -33 -30 -33 -34 0 -40 31 -10 50 12 7 15 23 7 34 -8 13 -4 16 10 8
15 -10 23 6 23 47 0 33 -10 61 -22 61 -16 0 -15 9 2 30 14 17 46 30 72 30 29
0 48 -12 48 -30 0 -38 34 -39 71 -1 32 31 40 131 10 131 -10 0 -24 18 -31 40
-8 26 -30 40 -61 40 -57 0 -61 20 -17 104 l32 61 -52 -10 c-35 -6 -52 -1 -52
18 0 15 -19 27 -41 27 -23 0 -36 -9 -29 -20 7 -11 -10 -20 -39 -20 -32 0 -51
-11 -51 -30 0 -16 -9 -30 -20 -30 -34 0 -22 -36 31 -89 28 -28 69 -48 94 -46
70 8 65 -52 -6 -79 -35 -13 -58 -32 -52 -41 28 -45 -78 -15 -129 37 -55 56
-58 68 -55 214 2 85 7 129 11 99 5 -32 21 -55 39 -55 16 0 24 9 17 20 -7 11
-3 20 9 20 11 0 21 18 21 40 0 29 13 40 49 40 48 0 111 46 111 81 0 37 263 22
291 -16z m409 -293 c0 -16 9 -32 20 -35 60 -21 45 -137 -17 -137 -65 0 -89
-46 -35 -67 31 -11 30 -103 -2 -135 -33 -33 -106 139 -84 198 11 28 13 65 6
82 -38 86 -24 122 45 122 44 0 67 -10 67 -28z m-806 -315 c58 -55 59 -90 1
-104 -25 -6 -66 -30 -90 -53 -25 -23 -45 -35 -45 -26 0 8 -15 -6 -33 -32 -27
-38 -28 -55 -9 -86 53 -85 -20 -100 -103 -21 -31 30 -72 55 -91 55 -67 0 -36
60 35 67 64 6 141 64 141 107 0 23 104 131 129 134 10 1 39 -18 65 -41z"/>
<path d="M953 744 c-33 -37 -33 -39 6 -50 49 -12 61 3 43 52 -13 35 -15 35
-49 -2z"/>
</g>
</svg>
